<svg width="168" height="30" viewBox="0 0 168 30" fill="none" xmlns="http://www.w3.org/2000/svg">
	<path d="M16.6249 17.5697C16.649 18.6154 16.4562 19.6548 16.0588 20.6224C15.7197 21.4498 15.1412 22.1572 14.3976 22.654C13.6232 23.1489 12.7187 23.4013 11.7999 23.3788C10.8942 23.4155 9.99957 23.1686 9.24085 22.6726C8.48212 22.1766 7.89713 21.4562 7.56745 20.6118C7.18969 19.6433 7.0098 18.6089 7.03839 17.5697V1.87781H0.00188575V18.5696C-0.0341325 20.6101 0.446335 22.6266 1.39861 24.4316C2.32575 26.1499 3.74158 27.5547 5.46707 28.4683C7.44622 29.4269 9.61673 29.9248 11.8158 29.9248C14.0148 29.9248 16.1853 29.4269 18.1645 28.4683C19.8943 27.5551 21.3154 26.1506 22.2488 24.4316C23.2094 22.6293 23.6938 20.6115 23.6561 18.5696V1.87781H16.6196L16.6249 17.5697Z" fill="#1170C8" />
	<path d="M38.2159 8.21093C37.4074 8.20098 36.6045 8.34646 35.851 8.63946C35.1378 8.92181 34.4897 9.34665 33.9464 9.88803C33.5534 10.2779 33.2104 10.7151 32.9253 11.1895L31.9412 8.6183H26.857V29.3415H33.4649V19.0196C33.4377 18.1398 33.619 17.266 33.994 16.4695C34.3179 15.8051 34.8151 15.2404 35.433 14.8347C36.0066 14.4636 36.6756 14.2669 37.3588 14.2686C37.8522 14.2693 38.3415 14.3589 38.8031 14.5332C39.2972 14.723 39.7648 14.9755 40.1945 15.2845L43.1044 9.9092C42.3698 9.3801 41.5649 8.95628 40.713 8.65004C39.9121 8.36123 39.0673 8.21268 38.2159 8.21093Z" fill="#1170C8" />
	<path d="M61.4205 9.63415C59.8455 8.66671 58.0313 8.15908 56.1829 8.16865C54.4179 8.09854 52.6861 8.66144 51.2996 9.75583V0H44.7023V29.3416H49.7813L50.5008 27.4687C50.7283 27.7015 50.961 27.929 51.2097 28.1459C52.6116 29.3101 54.3936 29.9166 56.2146 29.8495C58.0599 29.8605 59.8711 29.3527 61.4417 28.384C63.0448 27.4003 64.3689 26.022 65.2874 24.3806C66.206 22.7393 66.6883 20.8899 66.6883 19.0091C66.6883 17.1282 66.206 15.2788 65.2874 13.6375C64.3689 11.9962 63.0448 10.6178 61.4417 9.63415H61.4205ZM59.4895 21.4322C59.1172 22.1142 58.5692 22.6841 57.9023 23.0828C57.3796 23.3897 56.8014 23.5901 56.201 23.6727C55.6006 23.7553 54.9897 23.7183 54.4036 23.5639C53.8175 23.4095 53.2677 23.1407 52.7858 22.7731C52.304 22.4054 51.8996 21.9461 51.596 21.4216C51.1894 20.7005 50.9813 19.8844 50.9928 19.0567C50.9789 18.2115 51.183 17.377 51.5854 16.6336C51.9712 15.934 52.5399 15.3525 53.2307 14.9512C53.9406 14.5453 54.7463 14.3371 55.5639 14.3481C56.3731 14.3379 57.17 14.5463 57.8706 14.9512C58.5583 15.353 59.1235 15.9346 59.5054 16.6336C59.9094 17.3766 60.1152 18.211 60.1032 19.0567C60.1129 19.8876 59.9049 20.7065 59.5001 21.4322H59.4895Z" fill="#1170C8" />
	<path d="M84.228 10.6117C83.9886 10.3502 83.7343 10.1029 83.4662 9.87097C82.0615 8.7043 80.2754 8.09762 78.4507 8.1674C76.6023 8.15783 74.7881 8.66546 73.2131 9.63291C71.6124 10.6185 70.2908 11.9975 69.3741 13.6386C68.4574 15.2796 67.9761 17.1281 67.9761 19.0078C67.9761 20.8876 68.4574 22.736 69.3741 24.3771C70.2908 26.0181 71.6124 27.3971 73.2131 28.3827C74.784 29.3506 76.595 29.8584 78.4402 29.8482C80.2612 29.9154 82.0431 29.3089 83.445 28.1447C83.6927 27.9312 83.9293 27.7051 84.154 27.4675L84.8735 29.3403H89.9577V8.61711H85.0904L84.228 10.6117ZM83.0641 21.4203C82.674 22.113 82.1036 22.6871 81.4135 23.0816C80.7023 23.4801 79.9008 23.6894 79.0856 23.6894C78.2704 23.6894 77.4689 23.4801 76.7577 23.0816C76.0905 22.6832 75.5424 22.1132 75.1706 21.4309C74.7712 20.7038 74.5688 19.8849 74.5833 19.0554C74.5694 18.2102 74.7735 17.3757 75.1758 16.6324C75.5594 15.9346 76.1242 15.3534 76.8106 14.95C77.5115 14.5455 78.3082 14.3372 79.1173 14.3468C79.935 14.3353 80.7408 14.5436 81.4505 14.95C82.1425 15.3498 82.7115 15.9317 83.0958 16.6324C83.4998 17.3753 83.7057 18.2098 83.6937 19.0554C83.6972 19.8856 83.4799 20.7018 83.0641 21.4203Z" fill="#1170C8" />
	<path d="M110.247 9.26384C108.937 8.53383 107.455 8.16844 105.956 8.20572C105.073 8.21568 104.197 8.36018 103.358 8.63425C102.449 8.92012 101.581 9.32388 100.776 9.83523C100.206 10.1941 99.6845 10.6264 99.2262 11.1208L98.274 8.63425H93.195V29.3416H99.7977V18.0833C99.7974 17.4093 99.9921 16.7496 100.358 16.1839C100.749 15.5779 101.286 15.0797 101.919 14.7349C102.552 14.3901 103.261 14.2098 103.982 14.2105C104.646 14.1956 105.301 14.368 105.871 14.7079C106.42 15.0499 106.854 15.5471 107.12 16.1363C107.433 16.8471 107.583 17.619 107.559 18.3954V29.3416H114.167V17.1733C114.201 15.5107 113.838 13.864 113.109 12.3694C112.479 11.0766 111.484 9.99691 110.247 9.26384Z" fill="#1170C8" />
	<path d="M138.097 3.24338C135.9 1.97397 133.402 1.31972 130.864 1.34935C128.322 1.32047 125.818 1.97066 123.611 3.2328C121.467 4.46108 119.689 6.24013 118.463 8.38583C117.028 10.837 116.352 13.6588 116.521 16.4943C116.689 19.3298 117.695 22.0516 119.411 24.3152C121.127 26.5789 123.476 28.2828 126.16 29.2113C128.845 30.1398 131.744 30.2513 134.492 29.5316C137.24 28.8119 139.712 27.2933 141.597 25.168C143.482 23.0428 144.694 20.4062 145.079 17.5921C145.465 14.7779 145.008 11.9125 143.765 9.35839C142.522 6.80426 140.549 4.67618 138.097 3.24338ZM137.039 19.3797C136.412 20.5032 135.499 21.4413 134.393 22.099C133.327 22.7471 132.102 23.0877 130.854 23.0831C129.608 23.0862 128.386 22.7418 127.325 22.0885C125.645 21.0407 124.432 19.386 123.94 17.4678C123.447 15.5497 123.712 13.5155 124.68 11.7877C125.312 10.6708 126.223 9.7374 127.325 9.07889C128.388 8.43178 129.609 8.08952 130.854 8.08952C132.099 8.08952 133.319 8.43178 134.383 9.07889C135.486 9.73507 136.398 10.6691 137.028 11.7877C137.691 12.9411 138.032 14.2509 138.017 15.581C138.024 16.9125 137.681 18.2225 137.023 19.3797H137.039Z" fill="#1170C8" />
	<path d="M166.365 17.2318C165.688 16.1304 164.76 15.2056 163.656 14.5336C162.264 13.691 160.787 12.9993 159.249 12.4703C159.192 12.4572 159.137 12.4376 159.085 12.4121C159.03 12.3872 158.974 12.3677 158.915 12.3539C158.822 12.3266 158.73 12.293 158.64 12.2534C158.552 12.2169 158.462 12.1852 158.371 12.1581C157.312 11.8037 156.577 11.5286 156.08 11.3169C155.655 11.1521 155.263 10.914 154.921 10.6133C154.788 10.4993 154.682 10.358 154.609 10.1992C154.536 10.0403 154.498 9.86756 154.498 9.69272C154.491 9.32784 154.596 8.96968 154.799 8.66634C155.027 8.35719 155.34 8.12026 155.699 7.98387C156.165 7.80857 156.661 7.72589 157.159 7.74049C158.254 7.75011 159.334 7.98608 160.333 8.43356C161.301 8.84115 162.195 9.40606 162.979 10.1054L166.947 5.2592C165.62 4.03384 164.087 3.05394 162.418 2.36525C160.649 1.66534 158.76 1.3202 156.857 1.34947C155.02 1.28444 153.195 1.66948 151.54 2.47107C150.233 3.12365 149.154 4.1565 148.445 5.4338C147.784 6.66427 147.444 8.04181 147.456 9.43878C147.401 10.9735 147.833 12.4862 148.689 13.7612C149.456 14.8729 150.472 15.7897 151.657 16.4382C152.858 17.0804 154.122 17.5981 155.429 17.9831L155.746 18.0836C156.708 18.3506 157.645 18.6957 158.55 19.1153C159.051 19.3302 159.494 19.658 159.847 20.0729C160.072 20.4007 160.189 20.7913 160.18 21.1892C160.186 21.5858 160.064 21.9737 159.831 22.2949C159.548 22.646 159.167 22.904 158.736 23.0356C158.136 23.2265 157.508 23.3159 156.879 23.3001C155.675 23.3001 154.485 23.0326 153.397 22.5171C152.182 21.9316 151.073 21.1466 150.117 20.1945L145.657 24.8238C147.113 26.3988 148.876 27.6592 150.837 28.5272C152.797 29.3802 154.915 29.8127 157.053 29.797C158.91 29.8372 160.753 29.4668 162.45 28.7124C163.935 28.0668 165.192 26.9908 166.06 25.6234C166.928 24.2559 167.365 22.6598 167.317 21.041C167.355 19.7079 167.026 18.39 166.365 17.2318Z" fill="#1170C8" />
</svg>
